<?xml version="1.0" standalone="no"?>
<!DOCTYPE svg PUBLIC "-//W3C//DTD SVG 20010904//EN"
 "http://www.w3.org/TR/2001/REC-SVG-20010904/DTD/svg10.dtd">
<svg version="1.0" xmlns="http://www.w3.org/2000/svg"
 width="96.000000pt" height="96.000000pt" viewBox="0 0 96.000000 96.000000"
 preserveAspectRatio="xMidYMid meet">
<metadata>
Created by potrace 1.11, written by Peter Selinger 2001-2013
</metadata>
<g transform="translate(0.000000,96.000000) scale(0.100000,-0.100000)"
fill="#000000" stroke="none">
<path d="M52 907 l-42 -43 0 -384 0 -384 42 -43 42 -43 386 0 386 0 42 43 42
43 0 385 0 385 -43 42 -43 42 -385 0 -385 0 -42 -43z m200 -367 l78 -135 0
138 0 137 30 0 30 0 0 -190 0 -190 -32 0 c-32 0 -36 6 -108 131 l-75 130 -3
-130 -3 -131 -29 0 -30 0 0 183 c0 101 3 187 7 191 4 4 19 6 32 4 21 -2 39
-27 103 -138z m531 -28 c66 -194 69 -215 30 -210 -24 3 -30 10 -43 56 l-15 52
-62 0 -62 0 -16 -55 c-14 -51 -18 -55 -45 -55 -17 0 -30 5 -30 10 0 6 28 92
61 190 l62 180 31 0 31 0 58 -168z"/>
<path d="M672 533 c-12 -37 -20 -69 -18 -71 2 -2 21 -2 43 0 l39 3 -21 67 -21
67 -22 -66z"/>
</g>
</svg>
